<svg xmlns="http://www.w3.org/2000/svg" width="174" height="174" viewBox="0 0 174 174">
  <g id="Groupe_105" data-name="Groupe 105" transform="translate(-873 -453)">
    <circle id="Ellipse_39" data-name="Ellipse 39" cx="87" cy="87" r="87" transform="translate(873 453)" fill="#363e41"/>
    <g id="logo_mmi_svg" transform="translate(451.19 -29.104)">
      <g id="Groupe_68" data-name="Groupe 68">
        <path id="Intersection_1" data-name="Intersection 1" d="M1113.8-167.45h0l-2.834-1.932L1081-236.9l.9-3.281,3.512-.314,30.952,24.827-20.285-60.039,1.657-2.659,3.169-.237,29.258,33.779,12.5-48a3.287,3.287,0,0,1,2.486-1.266,4.456,4.456,0,0,1,2.8,1.266l12.089,48,28.876-33.674,3.239-.172,1.422,2.962-20.6,60.039,31.54-24.827,3.483.485,1.232,3.109L1178.1-169.383l-3.574,1.608-2.75-2.394L1157.012-231.8l-9.1,10.388-2.566,1.545-2.5-1.545-9.786-10.388-16.7,62.422-2.561,1.932Zm55.3-37.917,6.788,26.17,21.3-48.568Zm-56.248,26.17,6.788-26.17-28.084-22.4h0Zm48.947-58.3,5.656,21.419,15.687-46.608Zm-39.293,21.419,5.656-21.419-21.343-25.188h0Zm74.678-11.687h0Zm-51.9-51.589L1134.8-239.608l10.483,11.843,9.88-11.24-9.88-40.349h0ZM1106.82-262.685ZM1091.556-227.764Z" transform="translate(-636 800)" fill="#fefefe"/>
      </g>
    </g>
  </g>
</svg>
