<svg xmlns="http://www.w3.org/2000/svg" width="16.097" height="26.892" viewBox="0 0 16.097 26.892">
  <g id="facebook" transform="translate(-16.254 -10.857)">
    <path id="Tracé_8" data-name="Tracé 8" d="M23.221,4.807h2.631V0H21.07c-.4-.017-5.262-.11-6.522,4.7a12.562,12.562,0,0,0-.421,3.863l-4.372.013v5.039l4.378-.013v13.29H20.82V13.613h4.426V8.562H20.82V6.972C20.82,5.984,21.237,4.807,23.221,4.807Zm.919,4.861v2.839H19.714V25.785H15.239V12.492l-4.378.013V9.679l4.39-.013L15.239,9.1A13.008,13.008,0,0,1,15.6,5.029a5.271,5.271,0,0,1,5.419-3.92h3.723V3.7H23.221a3.145,3.145,0,0,0-3.507,3.271v2.7Z" transform="translate(6.499 10.857)" fill="#fefefe"/>
  </g>
</svg>
