<svg xmlns="http://www.w3.org/2000/svg" width="26.892" height="26.892" viewBox="0 0 26.892 26.892">
  <g id="instagram" transform="translate(0.001)">
    <path id="Tracé_12" data-name="Tracé 12" d="M19.612,0H7.278A7.288,7.288,0,0,0,0,7.279V19.613a7.288,7.288,0,0,0,7.279,7.279H19.612a7.287,7.287,0,0,0,7.279-7.279V7.279A7.288,7.288,0,0,0,19.611,0Zm5.7,19.613a5.709,5.709,0,0,1-5.7,5.7H7.278a5.709,5.709,0,0,1-5.7-5.7V7.279a5.709,5.709,0,0,1,5.7-5.7H19.612a5.709,5.709,0,0,1,5.7,5.7Zm0,0" transform="translate(0 0)" fill="#fefefe"/>
    <path id="Tracé_13" data-name="Tracé 13" d="M123.357,116a7.353,7.353,0,1,0,7.353,7.353A7.361,7.361,0,0,0,123.357,116Zm0,13.13a5.777,5.777,0,1,1,5.776-5.777A5.783,5.783,0,0,1,123.357,129.134Zm0,0" transform="translate(-109.912 -109.911)" fill="#fefefe"/>
    <path id="Tracé_14" data-name="Tracé 14" d="M360.149,66.285a2.173,2.173,0,1,0,2.173,2.173A2.175,2.175,0,0,0,360.149,66.285Zm0,2.769a.6.6,0,1,1,.6-.6A.6.6,0,0,1,360.149,69.054Zm0,0" transform="translate(-339.176 -62.804)" fill="#fefefe"/>
  </g>
</svg>
