<svg xmlns="http://www.w3.org/2000/svg" width="28.014" height="27.989" viewBox="0 0 28.014 27.989">
  <g id="link" transform="translate(-1.493 -1.507)">
    <path id="Tracé_118" data-name="Tracé 118" d="M15,17.432a5.9,5.9,0,0,0,4.382,2.614A5.733,5.733,0,0,0,24.06,18.14l3.6-3.936a6.991,6.991,0,0,0,0-9.276,5.658,5.658,0,0,0-8.5,0L17.1,7.173" transform="translate(-1.419)" fill="none" stroke="#fefefe" stroke-linecap="round" stroke-linejoin="round" stroke-width="3"/>
    <path id="Tracé_119" data-name="Tracé 119" d="M17.891,15.94a6.272,6.272,0,0,0-9.357-.659L4.811,18.943a6.032,6.032,0,0,0,0,8.631,6.278,6.278,0,0,0,8.775,0l2.121-2.088" transform="translate(0 -1.365)" fill="none" stroke="#fefefe" stroke-linecap="round" stroke-linejoin="round" stroke-width="3"/>
  </g>
</svg>
