<svg xmlns="http://www.w3.org/2000/svg" width="35.505" height="26.892" viewBox="0 0 35.505 26.892">
  <g id="youtube" transform="translate(0.001 0)">
    <path id="Tracé_15" data-name="Tracé 15" d="M200.922,110.994l-7.844-4.292a1.441,1.441,0,0,0-2.132,1.264v8.51a1.438,1.438,0,0,0,2.123,1.269l7.844-4.218a1.441,1.441,0,0,0,.009-2.533Zm-7.9,4.412v-6.36l5.862,3.208Zm0,0" transform="translate(-177.706 -99.136)" fill="#fefefe"/>
    <path id="Tracé_16" data-name="Tracé 16" d="M35.243,6.347l0-.016A8.12,8.12,0,0,0,33.676,2.21,5.777,5.777,0,0,0,29.849.416L29.673.395,29.611.388C24.917.047,17.829,0,17.758,0h-.012c-.071,0-7.16.047-11.9.388L5.787.395l-.166.02a5.632,5.632,0,0,0-3.8,1.85A8.509,8.509,0,0,0,.264,6.311l0,.036C.25,6.466,0,9.3,0,12.139V14.8c0,2.842.251,5.673.261,5.792l0,.018a8.04,8.04,0,0,0,1.559,4.07,5.9,5.9,0,0,0,3.955,1.769c.144.017.269.031.353.046l.082.011c2.71.258,11.207.385,11.568.39H17.8c.071,0,7.159-.047,11.853-.388l.062-.007c.059-.008.126-.015.2-.022a5.5,5.5,0,0,0,3.771-1.8,8.508,8.508,0,0,0,1.552-4.046l0-.036c.011-.119.261-2.95.261-5.792V12.139c0-2.842-.251-5.673-.261-5.792ZM33.423,14.8c0,2.631-.23,5.34-.251,5.588a6.606,6.606,0,0,1-1.021,2.882A3.422,3.422,0,0,1,29.7,24.405l-.222.025c-4.54.328-11.361.379-11.675.381-.352-.005-8.725-.133-11.353-.377-.135-.022-.28-.039-.433-.056a3.89,3.89,0,0,1-2.661-1.111l-.019-.021a5.993,5.993,0,0,1-1-2.853c-.017-.188-.252-2.929-.252-5.6V12.139c0-2.628.229-5.334.251-5.587A6.471,6.471,0,0,1,3.352,3.668,3.59,3.59,0,0,1,5.859,2.482l.17-.02c4.606-.33,11.476-.379,11.723-.381s7.114.051,11.679.381l.183.022a3.726,3.726,0,0,1,2.548,1.154l.008.009a6.09,6.09,0,0,1,1,2.9c.016.177.252,2.924.252,5.6Zm0,0" fill="#fefefe"/>
  </g>
</svg>
